<svg width="22" height="22" viewBox="0 0 22 22" fill="none" xmlns="http://www.w3.org/2000/svg">
  <path
    d="M8.25 18.5635C8.25 18.8354 8.16936 19.1013 8.01827 19.3274C7.86718 19.5535 7.65244 19.7297 7.40119 19.8338C7.14994 19.9379 6.87347 19.9651 6.60675 19.9121C6.34003 19.859 6.09503 19.728 5.90273 19.5357C5.71043 19.3435 5.57947 19.0984 5.52642 18.8317C5.47337 18.565 5.5006 18.2885 5.60467 18.0373C5.70874 17.786 5.88497 17.5713 6.11109 17.4202C6.33721 17.2691 6.60305 17.1885 6.875 17.1885C7.23967 17.1885 7.58941 17.3333 7.84727 17.5912C8.10513 17.8491 8.25 18.1988 8.25 18.5635ZM15.8125 17.1885C15.5406 17.1885 15.2747 17.2691 15.0486 17.4202C14.8225 17.5713 14.6462 17.786 14.5422 18.0373C14.4381 18.2885 14.4109 18.565 14.4639 18.8317C14.517 19.0984 14.6479 19.3435 14.8402 19.5357C15.0325 19.728 15.2775 19.859 15.5443 19.9121C15.811 19.9651 16.0874 19.9379 16.3387 19.8338C16.5899 19.7297 16.8047 19.5535 16.9558 19.3274C17.1069 19.1013 17.1875 18.8354 17.1875 18.5635C17.1875 18.1988 17.0426 17.8491 16.7848 17.5912C16.5269 17.3333 16.1772 17.1885 15.8125 17.1885ZM19.6023 5.77598C19.5379 5.69108 19.4547 5.62213 19.3594 5.57445C19.264 5.52677 19.159 5.50163 19.0523 5.50098H4.15078L3.45469 3.06035C3.37122 2.77362 3.19722 2.52159 2.95869 2.34191C2.72015 2.16223 2.42988 2.06456 2.13125 2.06348H0.6875C0.505164 2.06348 0.330295 2.13591 0.201364 2.26484C0.0724328 2.39377 0 2.56864 0 2.75098C0 2.93331 0.0724328 3.10818 0.201364 3.23711C0.330295 3.36604 0.505164 3.43848 0.6875 3.43848H2.13125L2.97344 6.36895V6.38613L5.24219 14.3182C5.36677 14.7486 5.62761 15.1271 5.98555 15.3967C6.34349 15.6663 6.77922 15.8125 7.22734 15.8135H15.4602C15.9083 15.8125 16.344 15.6663 16.702 15.3967C17.0599 15.1271 17.3207 14.7486 17.4453 14.3182L19.7141 6.37754C19.7431 6.27545 19.7482 6.16801 19.7288 6.06364C19.7094 5.95928 19.6661 5.86082 19.6023 5.77598V5.77598Z"
    fill="#F3F2F2" />
</svg>