<svg width="85" height="40" viewBox="0 0 85 40" fill="none" xmlns="http://www.w3.org/2000/svg">
<path d="M24.2417 4.10239C23.9173 3.60575 23.4436 3.59149 22.9037 3.57523C22.8425 3.57339 22.7805 3.57153 22.7178 3.56893C22.67 3.56673 22.6172 3.56758 22.5621 3.56846C22.3432 3.57198 22.0871 3.57609 21.958 3.39212C21.8085 3.17883 21.8226 2.76663 21.8344 2.42635C21.8381 2.31882 21.8415 2.21841 21.8395 2.1338C21.8184 1.34332 21.7746 0.503628 21.4695 0.22292C21.2394 0.0123098 20.551 0.041487 19.9161 0.0683954C19.7103 0.0771184 19.5102 0.085603 19.333 0.085603H5.82013C5.54806 0.085603 5.26286 0.0634489 4.98264 0.0416813C4.43662 -0.000733803 3.9095 -0.0416812 3.53517 0.085603C2.99192 0.271231 2.95513 1.24667 2.9205 2.16519L2.91863 2.21461C2.88955 2.97288 2.70163 3.55799 2.07882 3.49906C1.35446 3.43161 0.633667 3.41035 0.306157 4.06594C-0.0806401 4.84161 -0.000867499 5.65358 0.142017 7.10792C0.162428 7.31567 0.184126 7.53652 0.205936 7.77225H24.4506C24.4645 7.59995 24.4792 7.42986 24.4937 7.26253C24.6073 5.95406 24.7062 4.81402 24.2417 4.10239Z" fill="#8047F8"/>
<path fill-rule="evenodd" clip-rule="evenodd" d="M2.09404 9.21467C2.47269 14.3395 2.84721 19.4701 3.22174 24.6009L3.22197 24.604C3.42532 27.3898 3.62868 30.1757 3.8327 32.9606H4.60629C4.659 33.3965 4.71932 33.9347 4.78291 34.5021C4.912 35.6539 5.05461 36.9264 5.17451 37.7083H5.26007C6.04804 37.42 11.4953 35.0916 11.4978 25.8218C11.4968 25.7954 11.4977 25.7689 11.5004 25.7427H10.1546C10.0895 25.7421 10.0263 25.7203 9.97487 25.6808C9.92344 25.6413 9.88658 25.5861 9.86994 25.5238C9.7388 25.1999 9.63305 24.8664 9.55365 24.5264C8.76194 24.9736 8.13323 25.6564 7.75713 26.4775C7.40011 25.6365 7.35338 24.6983 7.6251 23.8267C7.89683 22.9551 8.46973 22.2057 9.24369 21.7093C9.25366 19.0043 10.2664 16.3968 12.0903 14.3804L12.1188 14.3553C12.1718 14.3095 12.2396 14.284 12.31 14.2834C12.3507 14.2838 12.3909 14.2925 12.4281 14.309C12.4657 14.3257 12.4993 14.35 12.5268 14.3804C14.372 16.3996 15.3794 19.0321 15.3481 21.7531C16.1365 22.2356 16.7211 22.9845 16.9933 23.8608C17.2655 24.7371 17.2069 25.6813 16.8283 26.5181C16.4542 25.6957 15.825 25.0123 15.0318 24.5671C14.9833 24.8966 14.8941 25.219 14.7661 25.527C14.7218 25.6583 14.6333 25.7427 14.5447 25.7427H13.1095C13.1118 25.7584 13.1134 25.7742 13.1143 25.7901L13.1148 25.7937V25.8014C13.1154 25.815 13.1154 25.8287 13.1149 25.8424C13.1345 35.3783 18.9262 37.5428 19.4144 37.7083H19.5814C19.624 36.9572 19.7628 35.9208 19.8981 34.9104C19.9913 34.2142 20.0829 33.5302 20.1402 32.9606H20.9227C21.1732 29.4527 21.4308 25.9546 21.6884 22.4564L21.6885 22.4545L21.6886 22.4535C22.0181 17.9789 22.3477 13.5042 22.6623 9.0087H2.14415C2.08509 9.02024 2.08912 9.11685 2.09404 9.21467ZM12.31 14.2834L12.3085 14.2834H12.3117L12.31 14.2834Z" fill="#8047F8"/>
<path d="M31.333 5.69821C31.333 4.43316 31.7688 3.45274 32.6404 2.75696C33.5279 2.04537 34.8591 1.68958 36.6341 1.68958C37.8068 1.68958 38.8052 1.80027 39.6293 2.02165V5.29498C38.7419 5.02615 37.8623 4.89174 36.9907 4.89174C36.1349 4.89174 35.5802 4.99453 35.3266 5.2001C35.0731 5.38985 34.9463 5.67449 34.9463 6.05401V14.0238C34.9463 14.7829 35.5406 15.1624 36.7292 15.1624C37.9336 15.1624 38.9241 15.0438 39.7007 14.8066V18.0088C38.8449 18.246 37.8068 18.3646 36.5865 18.3646C34.8116 18.3646 33.4883 18.0167 32.6166 17.3209C31.7608 16.6251 31.333 15.6447 31.333 14.3796V5.69821Z" fill="#403937"/>
<path d="M46.6446 7.95159C46.6446 7.35069 46.3118 7.05024 45.6462 7.05024C44.9806 7.05024 44.6478 7.35069 44.6478 7.95159V14.5457C44.6478 15.1466 44.9806 15.447 45.6462 15.447C46.3118 15.447 46.6446 15.1466 46.6446 14.5457V7.95159ZM41.1296 7.83299C41.1296 6.63119 41.502 5.69821 42.2468 5.03406C43.0075 4.35409 44.1407 4.01411 45.6462 4.01411C47.1518 4.01411 48.277 4.35409 49.0218 5.03406C49.7825 5.69821 50.1629 6.63119 50.1629 7.83299V14.6643C50.1629 15.8661 49.7825 16.807 49.0218 17.4869C48.277 18.1511 47.1518 18.4832 45.6462 18.4832C44.1407 18.4832 43.0075 18.1511 42.2468 17.4869C41.502 16.807 41.1296 15.8661 41.1296 14.6643V7.83299Z" fill="#403937"/>
<path d="M52.4734 4.08527C52.4734 1.41284 53.8839 0.0766322 56.7048 0.0766322C57.0693 0.0766322 57.5051 0.116165 58.0122 0.195231V2.94672C57.7587 2.9151 57.521 2.89928 57.2991 2.89928C56.4908 2.89928 56.0867 3.2788 56.0867 4.03783V4.25131H58.0122V7.05024H56.0867V18.246H52.4734V7.05024H51.1184V4.25131H52.4734V4.08527Z" fill="#403937"/>
<path d="M59.4842 4.08527C59.4842 1.41284 60.8947 0.0766322 63.7156 0.0766322C64.0801 0.0766322 64.516 0.116165 65.0231 0.195231V2.94672C64.7695 2.9151 64.5318 2.89928 64.3099 2.89928C63.5017 2.89928 63.0976 3.2788 63.0976 4.03783V4.25131H65.0231V7.05024H63.0976V18.246H59.4842V7.05024H58.1292V4.25131H59.4842V4.08527Z" fill="#403937"/>
<path d="M65.8532 14.261V7.83299C65.8532 6.63119 66.2257 5.69821 66.9705 5.03406C67.7154 4.35409 68.8406 4.01411 70.3461 4.01411C73.2463 4.01411 74.6964 5.28707 74.6964 7.83299V12.6481H69.3002V13.9764C69.3002 14.4508 69.427 14.7908 69.6805 14.9964C69.9499 15.1861 70.5284 15.281 71.4159 15.281C72.3192 15.281 73.3018 15.1229 74.3636 14.8066V17.9376C73.2542 18.2381 72.0656 18.3883 70.7978 18.3883C67.5014 18.3883 65.8532 17.0125 65.8532 14.261ZM69.3002 9.92033H71.3921V7.88043C71.3921 7.27953 71.0434 6.97908 70.3461 6.97908C69.6488 6.97908 69.3002 7.27953 69.3002 7.88043V9.92033Z" fill="#403937"/>
<path d="M76.1142 14.261V7.83299C76.1142 6.63119 76.4866 5.69821 77.2314 5.03406C77.9763 4.35409 79.1015 4.01411 80.607 4.01411C83.5072 4.01411 84.9573 5.28707 84.9573 7.83299V12.6481H79.5611V13.9764C79.5611 14.4508 79.6879 14.7908 79.9414 14.9964C80.2108 15.1861 80.7893 15.281 81.6768 15.281C82.5801 15.281 83.5627 15.1229 84.6245 14.8066V17.9376C83.5151 18.2381 82.3265 18.3883 81.0587 18.3883C77.7623 18.3883 76.1142 17.0125 76.1142 14.261ZM79.5611 9.92033H81.653V7.88043C81.653 7.27953 81.3044 6.97908 80.607 6.97908C79.9097 6.97908 79.5611 7.27953 79.5611 7.88043V9.92033Z" fill="#403937"/>
<path d="M37.0547 26.9797C37.0547 25.8119 36.437 25.2281 35.2017 25.2281H33.2317V35.874H35.2017C36.437 35.874 37.0547 35.2771 37.0547 34.0834V26.9797ZM31.8468 24.0214H35.2797C36.32 24.0214 37.1067 24.2874 37.6398 24.8194C38.173 25.3513 38.4395 26.065 38.4395 26.9602V34.1224C38.4395 35.0436 38.1795 35.7702 37.6593 36.3022C37.1392 36.8341 36.359 37.1001 35.3187 37.1001H31.8468V24.0214Z" fill="#403937"/>
<path d="M40.7186 34.2781V28.8675C40.7186 27.9463 40.9786 27.2132 41.4988 26.6683C42.0319 26.1104 42.8316 25.8314 43.8979 25.8314C44.9642 25.8314 45.7509 26.1104 46.258 26.6683C46.7782 27.2132 47.0382 27.9463 47.0382 28.8675V32.254H42.0839V34.2197C42.0839 34.8036 42.266 35.2382 42.6301 35.5237C42.9942 35.8091 43.5598 35.9518 44.327 35.9518C45.0942 35.9518 45.8874 35.8351 46.7067 35.6015V36.886C46.0565 37.0936 45.2828 37.1974 44.3855 37.1974C41.9409 37.1974 40.7186 36.2243 40.7186 34.2781ZM42.0839 31.1057H45.7119V28.8675C45.7119 27.6479 45.1072 27.0381 43.8979 27.0381C42.6886 27.0381 42.0839 27.6479 42.0839 28.8675V31.1057Z" fill="#403937"/>
<path d="M49.409 23.0872H50.7939V37.1001H49.409V23.0872Z" fill="#403937"/>
<path d="M54.168 24.7804C53.6088 24.7804 53.3293 24.482 53.3293 23.8852C53.3293 23.2883 53.6088 22.9899 54.168 22.9899C54.7401 22.9899 55.0262 23.2883 55.0262 23.8852C55.0262 24.482 54.7401 24.7804 54.168 24.7804ZM53.4853 26.1039H54.8702V37.1001H53.4853V26.1039Z" fill="#403937"/>
<path d="M62.0087 26.026H63.4131L60.9555 37.1001H59.0049L56.5473 26.026H57.9712L59.044 31.1057L59.9997 36.127C60.3898 33.9732 61.0595 30.6062 62.0087 26.026Z" fill="#403937"/>
<path d="M64.8905 34.2781V28.8675C64.8905 27.9463 65.1505 27.2132 65.6707 26.6683C66.2038 26.1104 67.0035 25.8314 68.0698 25.8314C69.1361 25.8314 69.9228 26.1104 70.4299 26.6683C70.9501 27.2132 71.2101 27.9463 71.2101 28.8675V32.254H66.2558V34.2197C66.2558 34.8036 66.4379 35.2382 66.802 35.5237C67.1661 35.8091 67.7317 35.9518 68.4989 35.9518C69.2661 35.9518 70.0593 35.8351 70.8785 35.6015V36.886C70.2284 37.0936 69.4547 37.1974 68.5574 37.1974C66.1128 37.1974 64.8905 36.2243 64.8905 34.2781ZM66.2558 31.1057H69.8838V28.8675C69.8838 27.6479 69.2791 27.0381 68.0698 27.0381C66.8605 27.0381 66.2558 27.6479 66.2558 28.8675V31.1057Z" fill="#403937"/>
<path d="M77.1699 25.9676H77.6575V27.2911H76.9943C76.5262 27.2911 76.1036 27.4143 75.7265 27.6609C75.6094 27.7387 75.3559 27.9139 74.9658 28.1864V37.1001H73.5809V26.026H74.9073V26.8629C74.9463 26.837 75.0438 26.7656 75.1998 26.6488C75.3689 26.5321 75.4664 26.4672 75.4924 26.4542C75.5314 26.4283 75.616 26.3764 75.746 26.2985C75.889 26.2207 75.9931 26.1752 76.0581 26.1623C76.1361 26.1363 76.2401 26.1039 76.3701 26.065C76.5652 26.0001 76.8318 25.9676 77.1699 25.9676Z" fill="#403937"/>
<path d="M83.591 26.026H84.9759L81.9331 40H80.6067L81.2114 37.1001H80.5287L78.1101 26.026H79.5144L80.6847 31.5339L81.543 36.127C81.803 34.596 82.0891 33.0649 82.4012 31.5339L83.591 26.026Z" fill="#403937"/>
</svg>
